<?xml version="1.0" encoding="UTF-8"?>
<!DOCTYPE svg PUBLIC "-//W3C//DTD SVG 1.1//EN" "http://www.w3.org/Graphics/SVG/1.1/DTD/svg11.dtd">
<svg xmlns="http://www.w3.org/2000/svg" version="1.1" width="204px" height="58px" style="shape-rendering:geometricPrecision; text-rendering:geometricPrecision; image-rendering:optimizeQuality; fill-rule:evenodd; clip-rule:evenodd" xmlns:xlink="http://www.w3.org/1999/xlink">
<g><path style="opacity:1" fill="#38b6ff" d="M 18.5,0.5 C 18.5,2.16667 18.5,3.83333 18.5,5.5C 16.8333,5.5 15.1667,5.5 13.5,5.5C 12.504,19.9905 12.1707,34.6572 12.5,49.5C 14.5,49.5 16.5,49.5 18.5,49.5C 18.5,51.1667 18.5,52.8333 18.5,54.5C 14.1667,54.5 9.83333,54.5 5.5,54.5C 5.5,36.5 5.5,18.5 5.5,0.5C 9.83333,0.5 14.1667,0.5 18.5,0.5 Z"/></g>
<g><path style="opacity:1" fill="#38b6ff" d="M 186.5,0.5 C 190.833,0.5 195.167,0.5 199.5,0.5C 199.5,18.5 199.5,36.5 199.5,54.5C 195.167,54.5 190.833,54.5 186.5,54.5C 186.5,52.8333 186.5,51.1667 186.5,49.5C 188.5,49.5 190.5,49.5 192.5,49.5C 192.5,34.8333 192.5,20.1667 192.5,5.5C 190.5,5.5 188.5,5.5 186.5,5.5C 186.5,3.83333 186.5,2.16667 186.5,0.5 Z"/></g>
<g><path style="opacity:0.826" fill="#2776a2" d="M 186.5,0.5 C 186.5,0.166667 186.5,-0.166667 186.5,-0.5C 191.5,-0.5 196.5,-0.5 201.5,-0.5C 200.514,17.7569 200.18,36.0902 200.5,54.5C 200.167,54.5 199.833,54.5 199.5,54.5C 199.5,36.5 199.5,18.5 199.5,0.5C 195.167,0.5 190.833,0.5 186.5,0.5 Z"/></g>
<g><path style="opacity:1" fill="#37b3fa" d="M 28.5,1.5 C 28.175,9.01905 28.5084,16.3524 29.5,23.5C 29.1667,24.1667 28.8333,24.8333 28.5,25.5C 28.5,32.5 28.5,39.5 28.5,46.5C 25.8333,46.5 23.1667,46.5 20.5,46.5C 20.5,31.5 20.5,16.5 20.5,1.5C 23.3817,1.01394 26.0483,1.01394 28.5,1.5 Z"/></g>
<g><path style="opacity:1" fill="#349fde" d="M 40.5,21.5 C 37.8333,23.1667 37.8333,24.8333 40.5,26.5C 41.0798,28.7488 42.4131,30.4154 44.5,31.5C 46.0627,32.9448 47.396,34.6115 48.5,36.5C 48.7376,38.4044 49.7376,39.7377 51.5,40.5C 53.5,41.976 55.1666,43.8094 56.5,46C 52.5,46.6667 48.5,46.6667 44.5,46C 39.6171,39.9566 34.9504,33.79 30.5,27.5C 30.1667,26.5 29.5,25.8333 28.5,25.5C 28.8333,24.8333 29.1667,24.1667 29.5,23.5C 29.8333,22.8333 30.1667,22.1667 30.5,21.5C 34.8769,14.6093 39.8769,8.10928 45.5,2C 49.1667,1.33333 52.8333,1.33333 56.5,2C 51.3024,8.68922 45.9691,15.1892 40.5,21.5 Z"/></g>
<g><path style="opacity:0.098" fill="#060b0e" d="M 28.5,1.5 C 29.1667,8.16667 29.8333,14.8333 30.5,21.5C 30.1667,22.1667 29.8333,22.8333 29.5,23.5C 28.5084,16.3524 28.175,9.01905 28.5,1.5 Z"/></g>
<g><path style="opacity:0.456" fill="#0e1a21" d="M 141.5,14.5 C 141.167,14.5 140.833,14.5 140.5,14.5C 140.5,11.5 140.5,8.5 140.5,5.5C 137.833,5.5 135.167,5.5 132.5,5.5C 133.055,9.01215 132.388,12.0122 130.5,14.5C 130.674,11.1262 131.174,7.79284 132,4.5C 141.175,1.5109 144.342,4.84423 141.5,14.5 Z"/></g>
<g><path style="opacity:1" fill="#37b0f6" d="M 140.5,14.5 C 144.5,15.1667 148.5,15.8333 152.5,16.5C 152.5,18.5 152.5,20.5 152.5,22.5C 148.5,22.5 144.5,22.5 140.5,22.5C 140.182,27.0323 140.515,31.3656 141.5,35.5C 144.831,37.2976 148.498,37.9643 152.5,37.5C 152.5,40.5 152.5,43.5 152.5,46.5C 146.974,46.8214 141.64,46.4881 136.5,45.5C 136.027,44.0937 135.027,43.427 133.5,43.5C 132.766,42.2921 132.433,40.9587 132.5,39.5C 132.5,33.8333 132.5,28.1667 132.5,22.5C 130.5,22.5 128.5,22.5 126.5,22.5C 126.5,19.8333 126.5,17.1667 126.5,14.5C 127.833,14.5 129.167,14.5 130.5,14.5C 132.388,12.0122 133.055,9.01215 132.5,5.5C 135.167,5.5 137.833,5.5 140.5,5.5C 140.5,8.5 140.5,11.5 140.5,14.5 Z"/></g>
<g><path style="opacity:0.055" fill="#020303" d="M 18.5,-0.5 C 18.8333,-0.5 19.1667,-0.5 19.5,-0.5C 19.8333,0.166667 20.1667,0.833333 20.5,1.5C 19.5489,2.91866 19.2155,4.58533 19.5,6.5C 17.8561,6.28649 16.3561,6.61983 15,7.5C 14.831,21.0063 14.331,34.3396 13.5,47.5C 13.5,33.5 13.5,19.5 13.5,5.5C 15.1667,5.5 16.8333,5.5 18.5,5.5C 18.5,3.83333 18.5,2.16667 18.5,0.5C 18.5,0.166667 18.5,-0.166667 18.5,-0.5 Z"/></g>
<g><path style="opacity:0.449" fill="#112530" d="M 185.5,-0.5 C 185.833,-0.5 186.167,-0.5 186.5,-0.5C 186.5,-0.166667 186.5,0.166667 186.5,0.5C 186.5,2.16667 186.5,3.83333 186.5,5.5C 188.5,5.5 190.5,5.5 192.5,5.5C 192.5,20.1667 192.5,34.8333 192.5,49.5C 190.5,49.5 188.5,49.5 186.5,49.5C 186.5,51.1667 186.5,52.8333 186.5,54.5C 190.833,54.5 195.167,54.5 199.5,54.5C 199.833,54.5 200.167,54.5 200.5,54.5C 195.695,55.4872 190.695,55.8205 185.5,55.5C 185.192,53.076 185.526,50.7427 186.5,48.5C 188.235,47.943 189.902,47.6097 191.5,47.5C 190.624,46.7492 189.624,46.2492 188.5,46C 189.416,45.6258 190.25,45.1258 191,44.5C 191.5,31.8377 191.667,19.1711 191.5,6.5C 189.5,6.5 187.5,6.5 185.5,6.5C 185.5,4.16667 185.5,1.83333 185.5,-0.5 Z"/></g>
<g><path style="opacity:0.706" fill="#162c39" d="M 80.5,14.5 C 79.209,14.7373 78.209,14.404 77.5,13.5C 77.4346,13.0618 77.6012,12.7284 78,12.5C 78.9947,13.0659 79.828,13.7326 80.5,14.5 Z"/></g>
<g><path style="opacity:0.843" fill="#1e506c" d="M 176.5,14.5 C 172.167,14.5 167.833,14.5 163.5,14.5C 167.231,13.8045 171.065,13.1378 175,12.5C 175.717,13.0442 176.217,13.7109 176.5,14.5 Z"/></g>
<g><path style="opacity:0.477" fill="#122935" d="M 13.5,5.5 C 13.5,19.5 13.5,33.5 13.5,47.5C 15.2646,48.4614 17.2646,48.7947 19.5,48.5C 19.8016,51.0593 19.4682,53.3926 18.5,55.5C 18.5,55.1667 18.5,54.8333 18.5,54.5C 18.5,52.8333 18.5,51.1667 18.5,49.5C 16.5,49.5 14.5,49.5 12.5,49.5C 12.1707,34.6572 12.504,19.9905 13.5,5.5 Z"/></g>
<g><path style="opacity:1" fill="#35a4e5" d="M 77.5,13.5 C 78.209,14.404 79.209,14.7373 80.5,14.5C 86.952,15.9518 90.6187,19.9518 91.5,26.5C 91.5,29.1667 91.5,31.8333 91.5,34.5C 89.3406,43.5194 83.5072,47.8527 74,47.5C 65.2049,47.8546 59.7049,43.8546 57.5,35.5C 57.5,32.1667 57.5,28.8333 57.5,25.5C 60.5961,15.9387 67.2627,11.9387 77.5,13.5 Z M 82.5,27.5 C 81.2801,29.2837 81.2801,30.9504 82.5,32.5C 80.2532,38.132 76.2532,40.132 70.5,38.5C 69.5,36.8333 68.1667,35.5 66.5,34.5C 66.5,34.1667 66.5,33.8333 66.5,33.5C 66.7153,31.477 66.7153,29.1437 66.5,26.5C 72.1959,19.5817 77.5292,19.915 82.5,27.5 Z"/></g>
<g><path style="opacity:0.781" fill="#225674" d="M 124.5,15.5 C 121.5,15.5 118.5,15.5 115.5,15.5C 115.369,14.6236 115.702,13.9569 116.5,13.5C 119.034,14.7883 121.534,14.7883 124,13.5C 125.38,14.2555 125.547,14.9222 124.5,15.5 Z"/></g>
<g><path style="opacity:0.767" fill="#235a7a" d="M 152.5,16.5 C 148.5,15.8333 144.5,15.1667 140.5,14.5C 140.833,14.5 141.167,14.5 141.5,14.5C 145.106,14.7892 148.606,14.4558 152,13.5C 153.546,14.5029 153.713,15.5029 152.5,16.5 Z"/></g>
<g><path style="opacity:1" fill="#36acf0" d="M 163.5,14.5 C 167.833,14.5 172.167,14.5 176.5,14.5C 176.833,14.5 177.167,14.5 177.5,14.5C 178.514,15.6737 179.847,16.3404 181.5,16.5C 181.738,18.4044 182.738,19.7377 184.5,20.5C 184.5,20.8333 184.5,21.1667 184.5,21.5C 185.088,30.103 184.422,38.4363 182.5,46.5C 176.217,47.5844 169.884,47.7511 163.5,47C 161.347,46.9005 159.681,46.0672 158.5,44.5C 157.833,43.1667 156.833,42.1667 155.5,41.5C 155.5,41.1667 155.5,40.8333 155.5,40.5C 155.5,38.1667 155.5,35.8333 155.5,33.5C 157.204,28.9745 160.537,26.9745 165.5,27.5C 168.167,27.5 170.833,27.5 173.5,27.5C 176.196,25.403 175.862,23.5697 172.5,22C 168.476,21.5027 164.476,21.6693 160.5,22.5C 158.744,21.4479 158.077,19.7812 158.5,17.5C 159.048,14.9162 160.715,13.9162 163.5,14.5 Z M 167.5,33.5 C 170.024,33.957 172.691,33.957 175.5,33.5C 175.5,35.5 175.5,37.5 175.5,39.5C 174.209,39.2627 173.209,39.596 172.5,40.5C 171.5,40.5 170.5,40.5 169.5,40.5C 168.365,38.7868 166.698,38.1201 164.5,38.5C 164.273,36.0672 165.273,34.4006 167.5,33.5 Z"/></g>
<g><path style="opacity:0.325" fill="#152733" d="M 177.5,14.5 C 179.38,14.2291 180.713,14.8958 181.5,16.5C 179.847,16.3404 178.514,15.6737 177.5,14.5 Z"/></g>
<g><path style="opacity:1" fill="#36adf2" d="M 104.5,36.5 C 105.058,37.7899 106.058,38.6232 107.5,39C 110.099,39.769 112.599,39.6023 115,38.5C 115.5,30.8406 115.666,23.1739 115.5,15.5C 118.5,15.5 121.5,15.5 124.5,15.5C 124.5,25.8333 124.5,36.1667 124.5,46.5C 117.518,47.3988 110.518,47.5654 103.5,47C 99.0228,46.3544 96.3562,43.8544 95.5,39.5C 95.5,38.5 95.5,37.5 95.5,36.5C 95.5,29.5 95.5,22.5 95.5,15.5C 98.1667,15.5 100.833,15.5 103.5,15.5C 103.175,22.6866 103.509,29.6866 104.5,36.5 Z"/></g>
<g><path style="opacity:1" fill="#214963" d="M 181.5,16.5 C 183.262,17.2623 184.262,18.5956 184.5,20.5C 182.738,19.7377 181.738,18.4044 181.5,16.5 Z"/></g>
<g><path style="opacity:0.05" fill="#0b1215" d="M 158.5,17.5 C 158.077,19.7812 158.744,21.4479 160.5,22.5C 159.745,24.4663 158.579,24.7996 157,23.5C 156.262,21.1195 156.762,19.1195 158.5,17.5 Z"/></g>
<g><path style="opacity:0.555" fill="#163242" d="M 104.5,36.5 C 103.509,29.6866 103.175,22.6866 103.5,15.5C 100.833,15.5 98.1667,15.5 95.5,15.5C 95.5,22.5 95.5,29.5 95.5,36.5C 94.5489,35.0813 94.2155,33.4147 94.5,31.5C 94.5,31.1667 94.5,30.8333 94.5,30.5C 94.5,27.8333 94.5,25.1667 94.5,22.5C 94.7564,20.2075 94.4231,18.0408 93.5,16C 94.1667,15.3333 94.8333,14.6667 95.5,14C 98.454,14.4771 101.287,14.6437 104,14.5C 104.5,21.8258 104.666,29.1591 104.5,36.5 Z"/></g>
<g><path style="opacity:0.016" fill="#0d161b" d="M 40.5,21.5 C 39.1667,23.1667 39.1667,24.8333 40.5,26.5C 37.8333,24.8333 37.8333,23.1667 40.5,21.5 Z"/></g>
<g><path style="opacity:0.447" fill="#102732" d="M 126.5,22.5 C 128.5,22.5 130.5,22.5 132.5,22.5C 132.5,28.1667 132.5,33.8333 132.5,39.5C 131.512,34.3595 131.179,29.0262 131.5,23.5C 129.585,23.7845 127.919,23.4511 126.5,22.5 Z"/></g>
<g><path style="opacity:0.555" fill="#153546" d="M 20.5,1.5 C 20.5,16.5 20.5,31.5 20.5,46.5C 20.5654,46.9382 20.3988,47.2716 20,47.5C 19.5,46.5 19,45.5 18.5,44.5C 19.4806,31.8833 19.8139,19.2167 19.5,6.5C 19.2155,4.58533 19.5489,2.91866 20.5,1.5 Z"/></g>
<g><path style="opacity:0.1" fill="#030505" d="M 28.5,25.5 C 29.5,25.8333 30.1667,26.5 30.5,27.5C 29.8333,33.8333 29.1667,40.1667 28.5,46.5C 28.5,39.5 28.5,32.5 28.5,25.5 Z"/></g>
<g><path style="opacity:0.169" fill="#05090b" d="M 173.5,27.5 C 170.833,27.5 168.167,27.5 165.5,27.5C 168.049,25.3953 170.715,25.3953 173.5,27.5 Z"/></g>
<g><path style="opacity:0.051" fill="#0b1317" d="M 66.5,26.5 C 66.7153,29.1437 66.7153,31.477 66.5,33.5C 65.1667,31.1667 65.1667,28.8333 66.5,26.5 Z"/></g>
<g><path style="opacity:0.384" fill="#172f3d" d="M 40.5,26.5 C 42.5869,27.5846 43.9202,29.2512 44.5,31.5C 42.4131,30.4154 41.0798,28.7488 40.5,26.5 Z"/></g>
<g><path style="opacity:0.502" fill="#142a36" d="M 82.5,27.5 C 83.8333,29.1667 83.8333,30.8333 82.5,32.5C 81.2801,30.9504 81.2801,29.2837 82.5,27.5 Z"/></g>
<g><path style="opacity:0.011" fill="#020608" d="M 94.5,22.5 C 94.5,25.1667 94.5,27.8333 94.5,30.5C 91.8333,30.8333 91.8333,31.1667 94.5,31.5C 94.2155,33.4147 94.5489,35.0813 95.5,36.5C 95.5,37.5 95.5,38.5 95.5,39.5C 94.0735,37.8516 93.2401,35.8516 93,33.5C 92.6174,34.056 92.1174,34.3893 91.5,34.5C 91.5,31.8333 91.5,29.1667 91.5,26.5C 92.1174,26.6107 92.6174,26.944 93,27.5C 93.1981,25.6183 93.6981,23.9516 94.5,22.5 Z"/></g>
<g><path style="opacity:0.4" fill="#0f242e" d="M 152.5,22.5 C 149.038,23.4816 145.371,23.815 141.5,23.5C 141.676,27.7111 141.676,31.7111 141.5,35.5C 140.515,31.3656 140.182,27.0323 140.5,22.5C 144.5,22.5 148.5,22.5 152.5,22.5 Z"/></g>
<g><path style="opacity:0.817" fill="#2879a6" d="M 3.5,-0.5 C 8.5,-0.5 13.5,-0.5 18.5,-0.5C 18.5,-0.166667 18.5,0.166667 18.5,0.5C 14.1667,0.5 9.83333,0.5 5.5,0.5C 5.5,18.5 5.5,36.5 5.5,54.5C 9.83333,54.5 14.1667,54.5 18.5,54.5C 18.5,54.8333 18.5,55.1667 18.5,55.5C 13.9014,55.2 9.40142,55.5333 5,56.5C 4.80859,37.4567 4.30859,18.4567 3.5,-0.5 Z"/></g>
<g><path style="opacity:0.565" fill="#173344" d="M 57.5,25.5 C 57.5,28.8333 57.5,32.1667 57.5,35.5C 56.7326,34.828 56.0659,33.9947 55.5,33C 56.1233,30.3927 56.79,27.8927 57.5,25.5 Z"/></g>
<g><path style="opacity:0.365" fill="#112631" d="M 167.5,33.5 C 170.167,32.1667 172.833,32.1667 175.5,33.5C 172.691,33.957 170.024,33.957 167.5,33.5 Z"/></g>
<g><path style="opacity:0.186" fill="#0a1115" d="M 175.5,33.5 C 176.468,35.6074 176.802,37.9407 176.5,40.5C 175.167,40.5 173.833,40.5 172.5,40.5C 173.833,40.5 175.167,40.5 176.5,40.5C 176.802,37.9407 176.468,35.6074 175.5,33.5 Z"/></g>
<g><path style="opacity:0.796" fill="#1b3545" d="M 66.5,34.5 C 68.1667,35.5 69.5,36.8333 70.5,38.5C 68.1667,38.1667 66.8333,36.8333 66.5,34.5 Z"/></g>
<g><path style="opacity:0.584" fill="#11212a" d="M 155.5,33.5 C 155.5,35.8333 155.5,38.1667 155.5,40.5C 153.109,38.0976 153.109,35.7642 155.5,33.5 Z"/></g>
<g><path style="opacity:0.628" fill="#193c50" d="M 184.5,21.5 C 185.18,29.5681 185.847,37.7348 186.5,46C 185.436,47.5106 184.103,47.6772 182.5,46.5C 184.422,38.4363 185.088,30.103 184.5,21.5 Z"/></g>
<g><path style="opacity:0.871" fill="#1e4157" d="M 48.5,36.5 C 50.2624,37.2623 51.2624,38.5956 51.5,40.5C 49.7376,39.7377 48.7376,38.4044 48.5,36.5 Z"/></g>
<g><path style="opacity:0.02" fill="#0e161a" d="M 164.5,38.5 C 166.698,38.1201 168.365,38.7868 169.5,40.5C 167.447,40.5979 165.78,39.9313 164.5,38.5 Z"/></g>
<g><path style="opacity:0.012" fill="#000000" d="M 153.5,41.5 C 154.833,42.1667 154.833,42.1667 153.5,41.5 Z"/></g>
<g><path style="opacity:0.016" fill="#152631" d="M 155.5,41.5 C 156.833,42.1667 157.833,43.1667 158.5,44.5C 156.5,44.5 155.5,43.5 155.5,41.5 Z"/></g>
<g><path style="opacity:0.651" fill="#1e435a" d="M 133.5,43.5 C 135.027,43.427 136.027,44.0937 136.5,45.5C 134.973,45.573 133.973,44.9063 133.5,43.5 Z"/></g>
</svg>
